<?xml version="1.0" encoding="utf-8"?>
<!-- Generator: Adobe Illustrator 16.0.0, SVG Export Plug-In . SVG Version: 6.00 Build 0)  -->
<!DOCTYPE svg PUBLIC "-//W3C//DTD SVG 1.1 Tiny//EN" "http://www.w3.org/Graphics/SVG/1.1/DTD/svg11-tiny.dtd">
<svg xmlns="http://www.w3.org/2000/svg" xmlns:xlink="http://www.w3.org/1999/xlink" version="1.1" baseProfile="tiny" id="Layer_1" x="0px" y="0px" width="512px" height="512px" viewBox="0 0 24 24" xml:space="preserve">
<path d="M18.153,22.757c-0.224-0.292-1.396-1.885-2.573-4.593l0.177-1.422c0.015-0.114-0.021-0.229-0.097-0.314  s-0.186-0.136-0.3-0.136h-0.506c-0.258-0.765-0.496-1.555-0.708-2.354c-0.003-0.011-0.006-0.021-0.01-0.032l0.187-1.865  c0.011-0.113-0.026-0.225-0.102-0.309c-0.076-0.084-0.184-0.132-0.297-0.132H13.66l-0.041-0.161  c-0.552-2.202-1.176-4.69-1.217-7.536h0.176c0.221,0,0.4-0.18,0.4-0.4V2.309c0-0.221-0.18-0.4-0.4-0.4H12.4V1  c0-0.221-0.18-0.4-0.4-0.4s-0.4,0.18-0.4,0.4v0.908h-0.166c-0.221,0-0.4,0.18-0.4,0.4v1.193c0,0.221,0.18,0.4,0.4,0.4h0.164  c-0.041,2.875-0.667,5.382-1.222,7.602L10.352,11.6h-0.249c-0.113,0-0.221,0.048-0.297,0.132c-0.075,0.084-0.112,0.196-0.102,0.309  l0.183,1.821c-0.012,0.024-0.021,0.05-0.028,0.076c-0.211,0.796-0.443,1.569-0.707,2.354H8.656c-0.114,0-0.224,0.05-0.3,0.136  s-0.111,0.2-0.097,0.313l0.17,1.401c-0.002,0.002-0.003,0.005-0.004,0.008c-1.23,2.848-2.442,4.432-2.576,4.603  c-0.095,0.121-0.112,0.284-0.045,0.422C5.871,23.313,6.011,23.4,6.164,23.4h2.762c0.221,0,0.4-0.201,0.4-0.422  c0-1.476,1.199-2.675,2.674-2.675c1.476,0,2.675,1.199,2.675,2.696c0,0.221,0.18,0.4,0.4,0.4h2.761c0.152,0,0.291-0.087,0.358-0.224  C18.262,23.041,18.246,22.878,18.153,22.757z M11.834,2.709h0.344v0.393h-0.344V2.709z M12.002,7.876  c0.241,1.359,0.554,2.61,0.833,3.724h-1.659C11.455,10.484,11.765,9.233,12.002,7.876z M13.483,12.4l-0.124,1.239h-2.69L10.545,12.4  H13.483z M10.552,14.44h2.901c0.172,0.626,0.358,1.246,0.559,1.852H9.994C10.196,15.675,10.381,15.063,10.552,14.44z M14.907,17.093  l-0.101,0.815H9.21l-0.101-0.815H14.907z M15.455,22.6c-0.189-1.738-1.667-3.097-3.455-3.097c-1.782,0-3.255,1.35-3.452,3.097H6.941  c0.49-0.727,1.295-2.042,2.113-3.891h5.891c0.815,1.835,1.608,3.14,2.115,3.891H15.455z" fill="#006DF0"/>
</svg>
